HIERARCHY
ROOT Hips
{
    OFFSET   0.000000   0.000000   0.000000
    CHANNELS 6 Xposition Yposition Zposition Zrotation Xrotation Yrotation
    JOINT Chest
    {
        OFFSET   0.000000   8.007230   0.000000
        CHANNELS 3 Zrotation Xrotation Yrotation
        JOINT Chest2
        {
            OFFSET   0.000000  22.077100   0.000000
            CHANNELS 3 Zrotation Xrotation Yrotation
            JOINT Neck
            {
                OFFSET   0.000000  23.254700   0.000000
                CHANNELS 3 Zrotation Xrotation Yrotation
                JOINT Head
                {
                    OFFSET   0.000010  14.370000   1.956610
                    CHANNELS 3 Zrotation Xrotation Yrotation
                    End Site
                    {
                        OFFSET   0.000000  19.566000   0.000000
                    }
                }
            }
            JOINT LeftCollar
            {
                OFFSET   3.911900  19.017000  -0.467063
                CHANNELS 3 Zrotation Xrotation Yrotation
                JOINT LeftShoulder
                {
                    OFFSET  10.383700   0.000000   0.000000
                    CHANNELS 3 Zrotation Xrotation Yrotation
                    JOINT LeftElbow
                    {
                        OFFSET  26.662100   0.001671   0.000522
                        CHANNELS 3 Zrotation Xrotation Yrotation
                        JOINT LeftWrist
                        {
                            OFFSET  28.869000   0.000037  -0.000114
                            CHANNELS 3 Zrotation Xrotation Yrotation
                            JOINT LeftFinger0
                            {
                                OFFSET   2.044650  -2.323450   3.252850
                                CHANNELS 3 Zrotation Xrotation Yrotation
                                JOINT LeftFinger01
                                {
                                    OFFSET   3.088140   0.000000   0.000000
                                    CHANNELS 3 Zrotation Xrotation Yrotation
                                    JOINT LeftFinger02
                                    {
                                        OFFSET   2.639460   0.000000   0.000000
                                        CHANNELS 3 Zrotation Xrotation Yrotation
                                        End Site
                                        {
                                            OFFSET   2.582190   0.000000   0.000000
                                        }
                                    }
                                }
                            }
                            JOINT LeftFinger1
                            {
                                OFFSET   8.364480   0.000000   3.252850
                                CHANNELS 3 Zrotation Xrotation Yrotation
                                JOINT LeftFinger11
                                {
                                    OFFSET   4.646930   0.000000   0.000000
                                    CHANNELS 3 Zrotation Xrotation Yrotation
                                    JOINT LeftFinger12
                                    {
                                        OFFSET   2.323470   0.000000   0.000000
                                        CHANNELS 3 Zrotation Xrotation Yrotation
                                        End Site
                                        {
                                            OFFSET   2.273050   0.000000   0.000000
                                        }
                                    }
                                }
                            }
                            JOINT LeftFinger2
                            {
                                OFFSET   8.364490   0.000016   1.078090
                                CHANNELS 3 Zrotation Xrotation Yrotation
                                JOINT LeftFinger21
                                {
                                    OFFSET   5.111620   0.000000   0.000000
                                    CHANNELS 3 Zrotation Xrotation Yrotation
                                    JOINT LeftFinger22
                                    {
                                        OFFSET   2.788150   0.000013   0.000000
                                        CHANNELS 3 Zrotation Xrotation Yrotation
                                        End Site
                                        {
                                            OFFSET   2.727660   0.000000   0.000000
                                        }
                                    }
                                }
                            }
                            JOINT LeftFinger3
                            {
                                OFFSET   7.899780   0.000016  -1.078090
                                CHANNELS 3 Zrotation Xrotation Yrotation
                                JOINT LeftFinger31
                                {
                                    OFFSET   4.646930   0.000000   0.000000
                                    CHANNELS 3 Zrotation Xrotation Yrotation
                                    JOINT LeftFinger32
                                    {
                                        OFFSET   2.323470   0.000000   0.000000
                                        CHANNELS 3 Zrotation Xrotation Yrotation
                                        End Site
                                        {
                                            OFFSET   2.273050   0.000000   0.000000
                                        }
                                    }
                                }
                            }
                            JOINT LeftFinger4
                            {
                                OFFSET   7.435080   0.000000  -3.252850
                                CHANNELS 3 Zrotation Xrotation Yrotation
                                JOINT LeftFinger41
                                {
                                    OFFSET   3.717550   0.000000   0.000000
                                    CHANNELS 3 Zrotation Xrotation Yrotation
                                    JOINT LeftFinger42
                                    {
                                        OFFSET   1.858760   0.000000   0.000000
                                        CHANNELS 3 Zrotation Xrotation Yrotation
                                        End Site
                                        {
                                            OFFSET   1.818440   0.000000   0.000000
                                        }
                                    }
                                }
                            }
                        }
                    }
                }
            }
            JOINT RightCollar
            {
                OFFSET  -3.911900  19.017000  -0.467064
                CHANNELS 3 Zrotation Xrotation Yrotation
                JOINT RightShoulder
                {
                    OFFSET -10.383700   0.000000   0.000000
                    CHANNELS 3 Zrotation Xrotation Yrotation
                    JOINT RightElbow
                    {
                        OFFSET -26.662100   0.001633   0.000260
                        CHANNELS 3 Zrotation Xrotation Yrotation
                        JOINT RightWrist
                        {
                            OFFSET -28.869000  -0.000045  -0.000080
                            CHANNELS 3 Zrotation Xrotation Yrotation
                            JOINT RightFinger0
                            {
                                OFFSET  -2.044660  -2.323490   3.252850
                                CHANNELS 3 Zrotation Xrotation Yrotation
                                JOINT RightFinger01
                                {
                                    OFFSET  -3.088140   0.000000   0.000000
                                    CHANNELS 3 Zrotation Xrotation Yrotation
                                    JOINT RightFinger02
                                    {
                                        OFFSET  -2.639450   0.000000   0.000000
                                        CHANNELS 3 Zrotation Xrotation Yrotation
                                        End Site
                                        {
                                            OFFSET  -2.582190   0.000000   0.000000
                                        }
                                    }
                                }
                            }
                            JOINT RightFinger1
                            {
                                OFFSET  -8.364480   0.000000   3.252850
                                CHANNELS 3 Zrotation Xrotation Yrotation
                                JOINT RightFinger11
                                {
                                    OFFSET  -4.646920   0.000000   0.000000
                                    CHANNELS 3 Zrotation Xrotation Yrotation
                                    JOINT RightFinger12
                                    {
                                        OFFSET  -2.323470   0.000000   0.000000
                                        CHANNELS 3 Zrotation Xrotation Yrotation
                                        End Site
                                        {
                                            OFFSET  -2.273050   0.000000   0.000000
                                        }
                                    }
                                }
                            }
                            JOINT RightFinger2
                            {
                                OFFSET  -8.364480   0.000000   1.078090
                                CHANNELS 3 Zrotation Xrotation Yrotation
                                JOINT RightFinger21
                                {
                                    OFFSET  -5.111610   0.000000   0.000000
                                    CHANNELS 3 Zrotation Xrotation Yrotation
                                    JOINT RightFinger22
                                    {
                                        OFFSET  -2.788160   0.000000   0.000000
                                        CHANNELS 3 Zrotation Xrotation Yrotation
                                        End Site
                                        {
                                            OFFSET  -2.727660   0.000000   0.000000
                                        }
                                    }
                                }
                            }
                            JOINT RightFinger3
                            {
                                OFFSET  -7.899780   0.000000  -1.078090
                                CHANNELS 3 Zrotation Xrotation Yrotation
                                JOINT RightFinger31
                                {
                                    OFFSET  -4.646930   0.000000   0.000000
                                    CHANNELS 3 Zrotation Xrotation Yrotation
                                    JOINT RightFinger32
                                    {
                                        OFFSET  -2.323470   0.000000   0.000000
                                        CHANNELS 3 Zrotation Xrotation Yrotation
                                        End Site
                                        {
                                            OFFSET  -2.273050   0.000000   0.000000
                                        }
                                    }
                                }
                            }
                            JOINT RightFinger4
                            {
                                OFFSET  -7.435090   0.000000  -3.252850
                                CHANNELS 3 Zrotation Xrotation Yrotation
                                JOINT RightFinger41
                                {
                                    OFFSET  -3.717550   0.000000   0.000000
                                    CHANNELS 3 Zrotation Xrotation Yrotation
                                    JOINT RightFinger42
                                    {
                                        OFFSET  -1.858760   0.000000   0.000000
                                        CHANNELS 3 Zrotation Xrotation Yrotation
                                        End Site
                                        {
                                            OFFSET  -1.818440   0.000000   0.000000
                                        }
                                    }
                                }
                            }
                        }
                    }
                }
            }
        }
    }
    JOINT LeftHip
    {
        OFFSET   9.782990   0.000000   0.000000
        CHANNELS 3 Zrotation Xrotation Yrotation
        JOINT LeftKnee
        {
            OFFSET  -0.000063 -41.789100   0.001657
            CHANNELS 3 Zrotation Xrotation Yrotation
            JOINT LeftAnkle
            {
                OFFSET   0.000078 -41.133200  -0.000113
                CHANNELS 3 Zrotation Xrotation Yrotation
                JOINT LeftToe
                {
                    OFFSET   0.000000  -6.358970  14.674500
                    CHANNELS 3 Zrotation Xrotation Yrotation
                    End Site
                    {
                        OFFSET   0.000000   0.000000   3.913200
                    }
                }
            }
        }
    }
    JOINT RightHip
    {
        OFFSET  -9.782990   0.000000   0.000000
        CHANNELS 3 Zrotation Xrotation Yrotation
        JOINT RightKnee
        {
            OFFSET   0.000053 -41.789200   0.000277
            CHANNELS 3 Zrotation Xrotation Yrotation
            JOINT RightAnkle
            {
                OFFSET   0.000030 -41.133200  -0.000150
                CHANNELS 3 Zrotation Xrotation Yrotation
                JOINT RightToe
                {
                    OFFSET   0.000000  -6.358960  14.674500
                    CHANNELS 3 Zrotation Xrotation Yrotation
                    End Site
                    {
                        OFFSET   0.000000   0.000000   3.913200
                    }
                }
            }
        }
    }
}
MOTION
Frames: 4
Frame Time:   0.016667
  0.122138  89.547600  -0.820093  -2.581240  -5.873190  -2.159840   0.911000   3.480080  -0.513499   1.858430   6.951390  -1.085480  -0.282360  -1.213980  -0.016362  -0.463774  -2.461630   4.665450  -4.547450  -1.256670   0.958689 -76.466100  14.257900   0.858962  -1.806910  -6.650620 -13.499700  11.100700  -3.239890   1.257000  36.479500  25.409600 -54.736000 -31.134200   0.000727   0.008904 -10.574000  -0.000133  -0.001064 -25.794100   5.137350 -10.507300 -21.490000  -0.001363   0.000325 -15.043000   0.000000  -0.006045 -27.724300   0.559021  -1.083010 -30.411500  -0.008129  -0.001992 -20.254100  -0.004239  -0.009779 -27.048200   0.546461  -1.089650 -27.235400   0.002752   0.002242 -18.136300   0.006019   0.001920 -25.903200   0.073822  -0.151970 -38.877600   0.000709  -0.001207 -25.877400   0.004257   0.002587   6.324900  -0.461447   7.867430  72.258700  -2.663200  -7.101540  -1.165190 -10.531700  10.607000  -1.858960   2.475990   2.872230 -40.881000  19.005100  52.560500  17.745800  -0.007829   0.002609   3.872920  -0.003226   0.006236  18.603100   6.011540  17.278500  15.974500   0.003879   0.003581  11.182100   0.004965  -0.000961  27.625700   4.711420   8.919330  31.956700  -0.009955  -0.004116  21.283200  -0.007636   0.000000  24.434200   1.696130   3.726820  24.489400  -0.008418  -0.006221  16.310000  -0.007570  -0.002049  29.395600   1.345840   2.387190  44.135400   0.000460  -0.001060  29.394200  -0.010216   0.005490   1.677820   8.453780   3.642950   0.620978   0.146180   3.363570  -0.477031  -3.510250   2.189020   0.000000   0.000000   0.000000   2.889170   7.612130  -1.317150  -0.222555   1.555760  -3.637520  -1.049600  -3.957810  -0.867025  -0.000000   0.000000   0.000000
  0.126332  89.547600  -0.813305  -2.580540  -5.879990  -2.150660   0.910969   3.487050  -0.513489   1.858470   6.965330  -1.085540  -0.283247  -1.206880  -0.016349  -0.465383  -2.447200   4.670770  -4.547050  -1.255690   0.969671 -76.464400  14.266800   0.851619  -1.809200  -6.656290 -13.507700  11.100300  -3.239900   1.249670  36.482900  25.405200 -54.743900 -31.126800   0.000738   0.008903 -10.574100  -0.000133  -0.001062 -25.794000   5.137430 -10.507500 -21.490000  -0.001367   0.000325 -15.043000  -0.000027  -0.006043 -27.724300   0.558771  -1.086500 -30.411500  -0.008107  -0.001968 -20.254100  -0.004241  -0.009764 -27.048200   0.546215  -1.093160 -27.236000   0.002741   0.002243 -18.136300   0.006018   0.001919 -25.903200   0.072519  -0.149273 -38.878200   0.000701  -0.001205 -25.877400   0.004258   0.002579   6.324990  -0.461775   7.874280  72.252900  -2.634760  -7.100210  -1.169870 -10.510900  10.619200  -1.891730   2.455880   2.883160 -40.867500  19.032500  52.584100  17.788200  -0.007843   0.002604   3.894070  -0.003226   0.006202  18.608400   6.003800  17.253300  15.974500   0.003874   0.003580  11.182100   0.004971  -0.000959  27.633700   4.732200   8.954970  32.026800  -0.009948  -0.004137  21.329900  -0.007619  -0.000042  24.499900   1.689750   3.697590  24.554400  -0.008403  -0.006227  16.353300  -0.007526  -0.002068  29.458000   1.335660   2.363270  44.228300   0.000497  -0.001085  29.456100  -0.010213   0.005465   1.676570   8.474500   3.642310   0.621485   0.124175   3.357390  -0.476484  -3.502240   2.189040   0.000000   0.000000   0.000000   2.889490   7.624080  -1.317190  -0.215415   1.559460  -3.643530  -1.049700  -3.963720  -0.866775   0.000000   0.000000   0.000000
  0.133191  89.547600  -0.801826  -2.579440  -5.892230  -2.135790   0.910843   3.498240  -0.513481   1.858330   6.987710  -1.085780  -0.285429  -1.194080  -0.016324  -0.469307  -2.421170   4.686880  -4.546500  -1.252060   0.989510 -76.461700  14.282500   0.840112  -1.812880  -6.665290 -13.521000  11.099700  -3.239920   1.239010  36.486300  25.400900 -54.751800 -31.119300   0.000765   0.008902 -10.574200  -0.000133  -0.001060 -25.794000   5.137550 -10.507700 -21.490000  -0.001376   0.000325 -15.043000  -0.000078  -0.006041 -27.724300   0.558422  -1.089990 -30.411500  -0.008056  -0.001920 -20.254100  -0.004245  -0.009725 -27.048300   0.545871  -1.096680 -27.236500   0.002712   0.002245 -18.136300   0.006016   0.001917 -25.903100   0.069733  -0.143521 -38.878800   0.000678  -0.001196 -25.877300   0.004259   0.002559   6.325110  -0.462096   7.886240  72.249300  -2.591660  -7.091800  -1.184700 -10.489800  10.642300  -1.925090   2.435740   2.908240 -40.835400  19.054600  52.620800  17.857600  -0.007872   0.002598   3.928770  -0.003225   0.006128  18.616700   5.991050  17.215000  15.974500   0.003866   0.003579  11.182100   0.004984  -0.000958  27.641600   4.752970   8.990610  32.096900  -0.009933  -0.004182  21.376500  -0.007580  -0.000117  24.622000   1.683370   3.668360  24.675900  -0.008369  -0.006238  16.434100  -0.007430  -0.002109  29.573100   1.316810   2.319230  44.399600   0.000559  -0.001140  29.570200  -0.010207   0.005410   1.674470   8.512390   3.640030   0.621485   0.083889   3.350450  -0.475422  -3.486760   2.189040   0.000000   0.000000   0.000000   2.890020   7.645310  -1.317270  -0.204972   1.563150  -3.652080  -1.049930  -3.972810  -0.866528  -0.000000   0.000000   0.000000
  0.138528  89.547600  -0.791960  -2.578790  -5.903660  -2.124780   0.910721   3.506220  -0.516396   1.858340   7.003630  -1.091810  -0.288563  -1.181270  -0.016299  -0.475074  -2.395120   4.716420  -4.546250  -1.245250   1.008320 -76.460100  14.294400   0.832959  -1.815190  -6.669960 -13.531600  11.097100  -3.241450   1.233350  36.486000  25.409500 -54.751800 -31.124200   0.000804   0.008920 -10.574200  -0.000136  -0.001061 -25.788000   5.137600 -10.507600 -21.485700  -0.001388   0.000324 -15.042700  -0.000130  -0.006041 -27.724400   0.558274  -1.085120 -30.405500  -0.007983  -0.001857 -20.250100  -0.004252  -0.009666 -27.048400   0.545724  -1.091770 -27.231700   0.002668   0.002245 -18.136300   0.006016   0.001918 -25.903100   0.065768  -0.135392 -38.874300   0.000640  -0.001177 -25.877300   0.004262   0.002530   6.318100  -0.460884   7.899790  72.255800  -2.561450  -7.075500  -1.201730 -10.498700  10.660400  -1.925830   2.453560   2.946900 -40.786600  19.013700  52.653400  17.898000  -0.007905   0.002638   3.948970  -0.003229   0.006030  18.617700   5.986450  17.192800  15.972700   0.003860   0.003583  11.180800   0.005006  -0.000959  27.632300   4.741360   8.972480  32.019400  -0.009914  -0.004242  21.324900  -0.007521  -0.000192  24.756600   1.689570   3.669440  24.811000  -0.008325  -0.006252  16.524000  -0.007295  -0.002168  29.701200   1.295640   2.270260  44.590300   0.000620  -0.001217  29.697200  -0.010195   0.005332   1.672250   8.560310   3.635040   0.618983   0.032769   3.349950  -0.474138  -3.464890   2.185120  -0.000000   0.000000  -0.000000   2.887870   7.665230  -1.321750  -0.199839   1.560640  -3.656210  -1.050410  -3.977840  -0.867761   0.000000   0.000000   0.000000
